<?xml version="1.0" standalone="no"?>
<!DOCTYPE svg PUBLIC "-//W3C//DTD SVG 20010904//EN"
 "http://www.w3.org/TR/2001/REC-SVG-20010904/DTD/svg10.dtd">
<svg version="1.0" xmlns="http://www.w3.org/2000/svg"
 width="577.000000pt" height="577.000000pt" viewBox="0 0 577.000000 577.000000"
 preserveAspectRatio="xMidYMid meet">
<metadata>
Created by potrace 1.11, written by Peter Selinger 2001-2013
</metadata>
<g transform="translate(0.000000,577.000000) scale(0.100000,-0.100000)"
fill="#000000" stroke="none">
<path d="M3000 5702 c0 -7 -4 -11 -8 -8 -5 3 -19 -4 -31 -15 -18 -17 -19 -23
-10 -42 7 -12 8 -19 4 -15 -4 4 -14 0 -22 -10 -7 -9 -13 -12 -12 -7 1 6 -1 18
-6 28 -4 10 -5 21 -1 24 3 4 6 -1 6 -10 0 -9 5 -17 10 -17 7 0 7 6 1 19 -10
18 -12 18 -46 3 -19 -9 -35 -20 -35 -25 0 -4 -5 -5 -10 -2 -6 4 -7 11 -4 17 4
7 2 8 -5 4 -6 -4 -9 -11 -6 -16 3 -5 -4 -11 -15 -15 -11 -3 -20 -11 -20 -16 0
-5 -3 -8 -7 -8 -20 3 -33 -2 -30 -12 4 -21 -35 -19 -40 2 -3 10 -6 19 -7 19
-1 0 -16 -4 -34 -9 -38 -11 -40 -6 -9 28 12 14 15 20 6 13 -9 -6 -20 -8 -24
-4 -5 4 -4 1 0 -7 6 -11 4 -13 -8 -8 -11 4 -14 2 -11 -7 4 -10 -3 -12 -23 -9
-31 5 -35 5 -81 -1 -18 -2 -38 -9 -46 -15 -8 -7 -16 -7 -23 0 -7 7 -14 5 -22
-5 -7 -8 -19 -12 -27 -9 -8 3 -14 0 -14 -7 0 -6 -4 -9 -9 -5 -5 3 -12 1 -16
-5 -4 -6 -11 -8 -16 -5 -5 4 -9 1 -9 -4 0 -6 -3 -10 -7 -9 -5 1 -18 -3 -30
-10 -13 -7 -23 -9 -23 -5 0 4 -4 3 -8 -2 -4 -6 -20 -17 -37 -25 -16 -8 -41
-25 -54 -37 -13 -13 -27 -20 -32 -17 -5 3 -9 0 -9 -6 0 -6 -4 -9 -10 -5 -5 3
-18 -3 -30 -15 -11 -11 -20 -17 -20 -12 0 4 -10 -4 -21 -18 -11 -14 -18 -18
-14 -10 4 10 1 9 -8 -2 -8 -10 -21 -18 -28 -18 -8 0 -23 -13 -32 -30 -10 -16
-27 -35 -38 -40 -11 -6 -17 -15 -14 -21 7 -11 -18 -39 -35 -39 -6 0 -9 -4 -6
-9 3 -5 -10 -22 -29 -38 -19 -17 -31 -33 -27 -37 4 -4 2 -6 -4 -4 -12 3 -84
-70 -84 -86 0 -5 -3 -7 -6 -4 -8 8 -66 -51 -60 -61 3 -4 -6 -13 -19 -19 -22
-10 -30 -28 -26 -54 0 -4 -7 -4 -16 -1 -11 4 -14 3 -9 -5 4 -7 2 -12 -4 -12
-6 0 -8 -5 -5 -10 3 -6 -1 -13 -10 -16 -9 -4 -14 -12 -11 -19 2 -7 -7 -17 -20
-24 -13 -6 -24 -14 -23 -18 3 -20 -2 -34 -10 -29 -5 3 -12 -5 -15 -19 -4 -14
-11 -25 -17 -25 -6 0 -7 -4 -4 -10 3 -5 1 -10 -4 -10 -6 0 -11 -7 -11 -15 0
-8 -5 -15 -11 -15 -5 0 -7 -4 -4 -10 3 -5 1 -10 -5 -10 -6 0 -8 -5 -4 -12 5
-8 2 -9 -10 -5 -14 6 -15 3 -6 -13 10 -19 4 -25 -22 -21 -4 0 -4 -9 1 -22 6
-15 4 -26 -8 -35 -12 -10 -12 -12 -1 -6 13 7 13 5 1 -9 -7 -9 -11 -23 -8 -31
3 -7 -2 -24 -10 -36 -12 -17 -13 -24 -3 -30 8 -5 10 -17 6 -34 -4 -16 -11 -24
-17 -20 -8 4 -8 1 -1 -12 11 -23 5 -73 -11 -93 -9 -12 -9 -13 1 -7 6 4 12 3
12 -3 0 -5 -5 -13 -10 -16 -7 -4 -7 -12 0 -25 7 -13 7 -21 0 -25 -8 -5 -8 -11
0 -20 8 -10 7 -16 -7 -24 -17 -10 -17 -10 2 -11 11 -1 14 -4 7 -7 -6 -2 -10
-9 -6 -14 3 -5 0 -9 -7 -9 -8 0 -8 -4 -1 -12 6 -7 11 -16 11 -20 1 -5 1 -9 2
-10 5 -17 4 -50 -3 -54 -13 -8 -9 -44 5 -44 9 0 8 -3 -2 -9 -9 -6 -10 -10 -2
-16 9 -5 9 -10 0 -21 -9 -11 -9 -14 1 -14 10 0 10 -3 1 -14 -9 -11 -9 -16 0
-22 8 -5 9 -3 4 6 -5 8 -4 11 2 7 5 -3 8 -20 5 -38 -3 -22 -1 -30 7 -25 11 7
15 -4 12 -36 -1 -10 3 -18 10 -18 9 0 9 -3 0 -14 -8 -10 -9 -16 -1 -21 6 -3 8
-10 5 -15 -3 -5 -1 -11 4 -15 6 -3 8 -12 4 -20 -3 -8 0 -15 5 -15 6 0 9 -9 7
-20 -2 -13 2 -20 11 -20 9 0 12 5 8 12 -4 6 -3 8 4 5 5 -4 8 -17 4 -29 -4 -15
-2 -19 7 -13 10 5 11 2 6 -14 -3 -11 -2 -21 3 -21 6 0 13 -7 16 -16 6 -15 4
-15 -11 -3 -17 13 -17 13 -1 -6 9 -11 18 -27 20 -35 2 -8 6 -18 10 -21 5 -3 9
-17 10 -31 1 -15 7 -24 12 -21 5 4 7 -1 3 -10 -3 -10 -2 -17 4 -17 6 0 7 -4 4
-10 -3 -5 -1 -10 4 -10 6 0 11 8 11 17 0 13 3 14 12 5 8 -8 8 -15 0 -25 -9
-10 -8 -18 4 -33 14 -18 15 -18 4 3 -8 18 -8 22 4 17 8 -3 13 -16 11 -29 -1
-13 3 -23 9 -22 6 1 12 -10 14 -25 2 -16 7 -28 11 -28 8 0 9 -8 12 -55 1 -14
11 -32 22 -40 13 -9 16 -15 8 -15 -10 0 -9 -6 5 -22 12 -13 13 -18 4 -13 -13
8 -13 6 -2 -8 8 -9 10 -22 6 -28 -4 -8 -3 -9 4 -5 8 5 12 0 12 -13 0 -12 5
-21 10 -21 6 0 10 -13 10 -30 0 -16 4 -30 8 -30 5 0 14 -12 20 -26 7 -14 17
-22 22 -19 6 4 10 3 9 -2 -1 -4 -1 -15 0 -23 1 -13 2 -13 11 0 8 13 10 12 10
-3 0 -10 4 -16 9 -13 5 3 12 -1 15 -10 3 -8 10 -13 14 -10 12 7 9 -57 -3 -66
-6 -5 -5 -8 3 -8 9 0 11 -7 7 -20 -5 -15 -2 -20 12 -20 15 0 16 -2 3 -10 -13
-8 -12 -10 5 -10 15 0 16 -3 7 -12 -7 -7 -12 -16 -12 -22 0 -5 3 -7 6 -3 4 3
13 0 20 -8 17 -17 18 -28 2 -20 -7 4 -6 1 2 -7 9 -7 15 -20 15 -28 0 -8 4 -18
10 -22 6 -5 5 -8 -3 -8 -10 0 -10 -5 -2 -20 8 -15 8 -20 -2 -20 -9 0 -10 -3
-2 -8 6 -4 10 -15 8 -24 -1 -10 2 -18 7 -18 6 0 7 -4 4 -10 -3 -5 0 -10 7 -10
10 0 10 -2 0 -9 -17 -10 -18 -72 -3 -98 9 -16 10 -16 11 -1 0 9 5 20 12 24 7
4 8 3 4 -4 -4 -7 -2 -12 4 -12 7 0 5 -7 -4 -16 -18 -17 -21 -28 -6 -19 14 9
12 -8 -2 -24 -10 -11 -10 -13 0 -7 6 4 12 2 12 -3 0 -6 7 -11 16 -11 8 0 12
-4 9 -10 -3 -5 -1 -10 4 -10 6 0 11 -7 11 -15 0 -8 5 -15 11 -15 5 0 7 4 4 10
-3 6 1 7 9 4 13 -5 13 -10 5 -27 -9 -18 -9 -20 1 -10 10 9 16 9 26 -2 8 -8 22
-12 32 -10 15 3 17 -7 16 -89 -3 -177 -7 -231 -20 -246 -7 -8 -14 -22 -16 -30
-2 -8 -11 -22 -20 -31 -10 -9 -15 -18 -13 -21 3 -3 -1 -11 -10 -18 -8 -7 -15
-19 -15 -26 0 -8 -5 -14 -11 -14 -5 0 -7 -5 -4 -10 3 -6 -1 -13 -9 -16 -9 -3
-14 -10 -11 -14 3 -5 1 -11 -5 -15 -5 -3 -10 -15 -10 -25 0 -10 -8 -24 -17
-29 -10 -6 -14 -11 -10 -11 7 0 -19 -56 -33 -70 -3 -3 -14 -21 -24 -40 -33
-59 -95 -105 -119 -87 -2 1 -11 -4 -21 -12 -9 -8 -19 -11 -23 -8 -3 4 -12 2
-20 -4 -7 -6 -13 -9 -13 -6 0 3 -15 1 -32 -5 -18 -5 -43 -11 -54 -13 -12 -2
-30 -8 -41 -14 -11 -5 -24 -7 -28 -3 -5 4 -5 2 -2 -5 5 -7 -4 -14 -25 -18 -17
-4 -38 -14 -46 -21 -7 -8 -17 -12 -22 -9 -5 3 -10 1 -12 -5 -1 -5 -13 -11 -26
-13 -13 -2 -27 -8 -30 -13 -4 -5 -13 -10 -21 -12 -8 -2 -32 -12 -54 -23 -23
-10 -47 -19 -54 -19 -7 0 -13 -4 -13 -9 0 -5 -10 -13 -22 -16 -35 -11 -113
-49 -116 -57 -2 -5 -8 -8 -13 -8 -6 0 -29 -9 -53 -19 -23 -11 -48 -21 -56 -23
-8 -2 -21 -9 -28 -15 -7 -7 -22 -13 -33 -13 -10 0 -19 -4 -19 -10 0 -5 -3 -9
-8 -8 -4 1 -32 -6 -62 -17 -30 -11 -59 -19 -65 -20 -6 0 -11 -183 -13 -522
l-2 -523 2165 0 2165 0 -2 592 c-2 387 -6 593 -13 594 -40 2 -95 18 -95 27 0
5 -3 8 -6 4 -4 -3 -23 0 -43 8 -20 8 -49 16 -66 19 -16 2 -43 9 -60 16 -16 6
-30 11 -30 10 0 -3 -61 12 -80 20 -28 12 -176 61 -200 67 -11 2 -25 5 -32 7
-7 1 -16 5 -19 9 -4 4 -16 7 -26 7 -10 0 -26 4 -36 9 -9 5 -32 15 -50 21 -18
7 -40 26 -49 41 -10 16 -20 29 -24 29 -4 0 -9 8 -13 18 -3 9 -10 24 -15 32
-23 37 -49 99 -44 104 4 3 1 6 -5 6 -7 0 -12 9 -12 20 0 11 -3 20 -8 20 -4 0
-13 13 -20 29 -7 16 -20 38 -30 49 -9 12 -27 34 -39 49 -41 53 -110 122 -117
116 -3 -3 -6 1 -6 10 0 8 -9 19 -20 22 -11 3 -20 11 -20 17 0 6 -3 9 -6 5 -4
-3 -13 0 -20 8 -8 7 -18 15 -24 17 -6 2 -13 12 -15 23 -2 11 -4 22 -5 25 -7
15 -4 57 4 67 5 8 4 19 -4 28 -10 13 -9 15 12 15 31 0 41 10 27 27 -7 8 -8 13
-1 13 5 0 9 13 8 30 -2 23 1 27 11 18 17 -13 17 3 1 22 -11 13 -11 13 1 3 20
-17 36 -17 22 0 -8 10 -7 17 2 27 10 10 9 12 -3 8 -17 -6 -26 27 -10 37 5 3 5
18 0 34 -7 25 -6 29 8 24 11 -5 13 -3 6 8 -15 25 -13 58 4 51 10 -3 13 -1 8 7
-4 6 -2 19 6 28 11 14 11 16 -2 9 -8 -4 -6 -1 4 8 10 8 22 14 25 11 4 -2 6 8
6 23 -1 15 3 33 8 39 5 7 7 19 4 27 -4 11 -1 13 11 9 15 -6 16 -5 2 12 -8 10
-10 16 -4 12 7 -4 12 4 12 21 2 26 9 67 12 67 1 0 3 22 6 49 2 27 6 51 8 54 3
2 1 15 -5 29 -6 16 -6 22 1 18 6 -3 10 1 10 10 0 10 -5 13 -12 9 -10 -6 -10
-5 -1 8 7 8 11 18 8 21 -3 4 -2 5 1 3 7 -6 107 46 126 65 8 8 13 20 10 27 -2
6 1 12 7 12 6 0 11 6 11 13 0 8 7 27 15 44 8 16 17 40 19 54 2 13 5 25 7 27 1
1 3 7 4 12 1 6 4 12 5 15 1 3 4 10 5 15 1 6 4 12 5 15 3 5 3 6 15 50 4 17 12
36 18 43 6 8 6 12 -2 12 -7 0 -6 9 5 25 9 14 13 25 8 25 -4 0 -3 5 3 11 6 6 9
18 6 25 -3 8 0 14 6 14 6 0 10 3 9 8 -1 4 4 18 11 30 7 13 15 36 17 50 3 15 9
29 15 30 5 2 9 14 9 27 0 13 5 27 10 30 8 5 7 11 -1 21 -10 12 -9 13 4 8 12
-4 15 -1 12 15 -2 12 1 21 7 21 6 0 8 3 5 7 -4 3 1 12 11 20 16 14 16 14 -3 9
-19 -6 -19 -5 -2 8 12 9 15 16 7 21 -13 8 5 35 23 35 6 0 2 -7 -9 -16 -18 -14
-18 -15 4 -4 18 9 21 14 12 25 -9 10 -7 18 7 32 11 11 17 25 15 32 -2 7 2 17
9 22 8 5 9 9 3 9 -5 0 -9 15 -8 33 2 47 3 49 17 41 9 -6 9 -5 0 8 -7 8 -10 17
-7 20 3 3 7 32 9 64 2 33 6 71 8 87 3 16 1 27 -6 27 -8 0 -8 3 -2 8 14 10 18
55 4 46 -8 -4 -7 0 0 15 7 12 8 27 4 34 -4 6 -8 21 -9 32 0 11 -2 30 -2 43 -1
13 -6 20 -12 17 -7 -4 -7 3 0 19 6 18 6 26 -1 26 -6 0 -9 7 -6 15 4 8 3 17 -2
19 -4 3 -8 20 -9 38 -2 41 -9 75 -18 90 -5 7 -3 8 6 3 9 -6 10 -2 5 16 -4 13
-13 30 -19 38 -9 12 -8 13 3 7 8 -6 7 0 -4 18 -10 14 -14 26 -11 26 4 0 0 12
-7 28 -8 15 -13 35 -12 45 2 9 -1 15 -6 11 -5 -3 -9 0 -9 6 0 6 -9 30 -20 52
-11 23 -20 48 -20 55 0 7 -5 13 -11 13 -5 0 -8 4 -5 9 3 5 -1 11 -9 15 -8 3
-15 12 -15 21 0 8 -5 15 -11 15 -5 0 -7 5 -4 10 3 6 -1 10 -10 10 -9 0 -13 5
-10 10 3 6 -1 10 -9 10 -9 0 -16 7 -16 15 0 8 -4 15 -8 15 -5 0 -23 23 -41 50
-18 28 -37 50 -42 50 -5 0 -9 7 -9 15 0 8 -4 15 -9 15 -6 0 -8 8 -6 18 2 11
-5 25 -15 32 -10 7 -16 19 -13 27 3 7 0 13 -6 13 -6 0 -8 7 -5 15 4 9 0 15
-10 15 -15 0 -21 12 -16 35 1 5 -1 7 -5 3 -10 -10 -48 28 -41 41 3 5 -3 12
-14 16 -11 4 -18 11 -15 16 4 5 -1 9 -9 9 -9 0 -16 5 -16 10 0 6 5 10 10 10 6
0 10 4 10 8 0 5 -7 9 -15 9 -8 0 -12 -4 -9 -8 2 -4 0 -10 -5 -13 -11 -7 -22
18 -13 30 4 5 3 6 -3 2 -15 -13 -28 -9 -22 7 4 8 1 17 -5 21 -7 4 -8 3 -4 -4
4 -7 3 -12 -2 -12 -6 0 -13 7 -16 16 -3 8 -10 13 -15 9 -9 -5 -27 32 -23 48 1
5 -2 6 -8 2 -5 -3 -10 -1 -10 6 0 7 -3 9 -6 6 -4 -4 -1 -14 6 -22 11 -13 11
-18 0 -28 -10 -9 -11 -9 -6 1 11 19 -12 42 -40 40 -13 -1 -24 -6 -24 -10 0 -4
-5 -8 -11 -8 -5 0 -7 5 -4 10 3 6 1 10 -5 10 -7 0 -9 9 -5 23 5 17 4 19 -4 7
-6 -8 -11 -10 -11 -4 0 6 -7 11 -15 11 -8 0 -12 -4 -9 -9 3 -4 0 -8 -5 -8 -6
0 -11 5 -11 10 0 6 -5 10 -11 10 -5 0 -7 -4 -4 -10 3 -6 -1 -7 -9 -4 -9 3 -16
1 -16 -6 0 -6 -5 -8 -12 -3 -7 4 -24 6 -37 4 -16 -2 -21 1 -16 10 5 7 4 10 -3
5 -6 -3 -13 -2 -17 4 -4 6 -11 7 -17 4 -6 -4 -14 0 -19 7 -7 12 -9 11 -9 -1 0
-12 -2 -12 -9 -1 -7 11 -13 10 -33 -3 -23 -15 -26 -15 -48 4 -25 22 -35 26
-25 10 3 -5 1 -10 -4 -10 -6 0 -11 5 -11 11 0 8 -4 9 -13 0 -8 -6 -17 -8 -20
-4 -4 3 -7 -1 -7 -11 0 -9 -4 -15 -9 -11 -5 3 -16 -3 -23 -12 -22 -29 -52 -42
-72 -31 -14 8 -15 12 -4 26 10 12 10 14 1 8 -9 -5 -13 0 -13 18 0 32 10 57 20
51 5 -3 14 1 22 8 7 8 21 13 31 11 9 -1 20 3 24 9 3 7 3 9 -2 5 -4 -4 -14 -3
-21 3 -8 7 -14 7 -19 -1 -3 -5 -15 -10 -27 -10 -18 0 -19 2 -7 17 10 12 11 15
1 9 -7 -4 -19 -2 -27 4 -8 6 -19 9 -24 6 -5 -4 -13 -1 -17 5 -5 8 -8 8 -14 -1
-4 -6 -13 -12 -21 -13 -8 -2 -20 -6 -27 -11 -8 -5 -18 -3 -25 4 -9 10 -9 11 1
6 6 -4 12 -2 12 3 0 6 6 11 13 11 8 0 14 7 14 15 0 10 -4 12 -12 5 -7 -5 -16
-6 -20 -2 -5 4 -5 1 -1 -5 5 -9 0 -13 -14 -13 -12 0 -18 -4 -15 -10 3 -5 4
-10 1 -10 -3 0 -12 12 -20 28 -8 15 -15 21 -16 14z m-16 -24 c-5 -9 -2 -9 9 1
9 7 17 11 17 8 0 -3 3 -13 7 -23 4 -12 3 -15 -5 -10 -7 4 -12 4 -12 -1 0 -4
-9 -19 -20 -33 -13 -15 -18 -18 -14 -7 3 9 0 25 -7 35 -13 16 -13 16 5 2 18
-14 19 -13 13 3 -7 18 -2 37 9 37 3 0 2 -6 -2 -12z m486 -158 c-19 -12 -33 2
-24 24 6 16 8 16 23 1 14 -14 14 -17 1 -25z m55 30 c3 -5 1 -10 -4 -10 -6 0
-11 5 -11 10 0 6 2 10 4 10 3 0 8 -4 11 -10z m-1445 -3276 c0 -8 -19 -13 -24
-6 -3 5 1 9 9 9 8 0 15 -2 15 -3z"/>
<path d="M2748 5643 c7 -3 16 -2 19 1 4 3 -2 6 -13 5 -11 0 -14 -3 -6 -6z"/>
<path d="M2686 5624 c-5 -14 -4 -15 8 -5 8 7 20 10 26 6 5 -3 10 -1 10 4 0 17
-37 13 -44 -5z"/>
<path d="M2780 5632 c0 -5 7 -9 15 -9 8 0 15 4 15 9 0 4 -7 8 -15 8 -8 0 -15
-4 -15 -8z"/>
<path d="M3340 5636 c0 -2 8 -10 18 -17 15 -13 16 -12 3 4 -13 16 -21 21 -21
13z"/>
<path d="M3413 5593 c0 -15 3 -15 32 -4 18 7 17 8 -6 13 -17 3 -26 0 -26 -9z"/>
<path d="M2726 5582 c-3 -5 1 -9 9 -9 8 0 12 4 9 9 -3 4 -7 8 -9 8 -2 0 -6 -4
-9 -8z"/>
<path d="M3720 5529 c0 -4 10 -6 21 -4 32 6 34 13 4 13 -14 0 -25 -4 -25 -9z"/>
<path d="M3870 2330 c0 -5 5 -10 10 -10 6 0 10 5 10 10 0 6 -4 10 -10 10 -5 0
-10 -4 -10 -10z"/>
</g>
</svg>
